<svg width="96" height="30" viewBox="0 0 96 30" fill="none" xmlns="http://www.w3.org/2000/svg">
<path d="M9.82373 8.92285L14.4556 0.960938H18.8755L12.2153 11.8896L19.0269 23H14.5615L9.82373 14.917L5.0708 23H0.620605L7.44727 11.8896L0.771973 0.960938H5.19189L9.82373 8.92285Z" fill="#171FE5"/>
<path d="M35.8438 14.9775C35.8438 17.5104 35.2686 19.5337 34.1182 21.0474C32.9678 22.5509 31.4238 23.3027 29.4863 23.3027C27.6901 23.3027 26.2521 22.7124 25.1724 21.5317V29.2969H21.4941V6.62207H24.8848L25.0361 8.28711C26.1159 6.97526 27.5841 6.31934 29.4409 6.31934C31.439 6.31934 33.0031 7.06608 34.1333 8.55957C35.2736 10.043 35.8438 12.1066 35.8438 14.7505V14.9775ZM32.1807 14.6597C32.1807 13.0249 31.8527 11.7282 31.1968 10.7695C30.5509 9.81087 29.6226 9.33154 28.4116 9.33154C26.908 9.33154 25.8283 9.95215 25.1724 11.1934V18.459C25.8384 19.7305 26.9282 20.3662 28.4419 20.3662C29.6125 20.3662 30.5257 19.897 31.1816 18.9585C31.8477 18.0099 32.1807 16.577 32.1807 14.6597Z" fill="#171FE5"/>
<path d="M47.5444 9.98242C47.0601 9.90169 46.5605 9.86133 46.0459 9.86133C44.3607 9.86133 43.2254 10.5072 42.6401 11.7988V23H38.9619V6.62207H42.4736L42.5645 8.45361C43.4525 7.03076 44.6836 6.31934 46.2578 6.31934C46.7826 6.31934 47.2165 6.38997 47.5596 6.53125L47.5444 9.98242Z" fill="#171FE5"/>
<path d="M56.7778 23.3027C54.4468 23.3027 52.5547 22.5711 51.1016 21.1079C49.6585 19.6346 48.937 17.6769 48.937 15.2349V14.7808C48.937 13.146 49.2498 11.6878 49.8755 10.4062C50.5112 9.11458 51.3993 8.11051 52.5396 7.39404C53.6799 6.67757 54.9513 6.31934 56.354 6.31934C58.5841 6.31934 60.3047 7.03076 61.5156 8.45361C62.7367 9.87646 63.3472 11.8896 63.3472 14.4932V15.9766H52.6455C52.7565 17.3288 53.2056 18.3984 53.9927 19.1855C54.7899 19.9727 55.7889 20.3662 56.9897 20.3662C58.675 20.3662 60.0474 19.6851 61.1069 18.3228L63.0898 20.2148C62.4339 21.1937 61.556 21.9556 60.4561 22.5005C59.3662 23.0353 58.1401 23.3027 56.7778 23.3027ZM56.3389 9.271C55.3298 9.271 54.5124 9.62419 53.8867 10.3306C53.2712 11.0369 52.8776 12.0208 52.7061 13.2822H59.7144V13.0098C59.6336 11.7786 59.3057 10.8503 58.7305 10.2246C58.1553 9.58887 57.3581 9.271 56.3389 9.271Z" fill="#171FE5"/>
<path d="M75.396 18.5498C75.396 17.8939 75.1235 17.3944 74.5786 17.0513C74.0438 16.7082 73.1507 16.4054 71.8994 16.1431C70.6481 15.8807 69.6037 15.5477 68.7661 15.144C66.9295 14.256 66.0112 12.9694 66.0112 11.2842C66.0112 9.87142 66.6066 8.69076 67.7974 7.74219C68.9881 6.79362 70.5018 6.31934 72.3384 6.31934C74.2961 6.31934 75.8753 6.80371 77.0762 7.77246C78.2871 8.74121 78.8926 9.99756 78.8926 11.5415H75.2144C75.2144 10.8351 74.952 10.2498 74.4272 9.78564C73.9025 9.31136 73.2062 9.07422 72.3384 9.07422C71.5311 9.07422 70.8701 9.2609 70.3555 9.63428C69.8509 10.0076 69.5986 10.5072 69.5986 11.1328C69.5986 11.6979 69.8358 12.1369 70.3101 12.4497C70.7843 12.7625 71.743 13.0804 73.186 13.4033C74.6291 13.7161 75.7593 14.0946 76.5767 14.5386C77.4041 14.9725 78.0146 15.4972 78.4082 16.1128C78.8118 16.7284 79.0137 17.4751 79.0137 18.353C79.0137 19.8263 78.4032 21.0221 77.1821 21.9404C75.9611 22.8486 74.3617 23.3027 72.3838 23.3027C71.0417 23.3027 69.8459 23.0605 68.7964 22.5762C67.7469 22.0918 66.9295 21.4258 66.3442 20.5781C65.759 19.7305 65.4663 18.8172 65.4663 17.8384H69.0386C69.089 18.7062 69.417 19.3773 70.0225 19.8516C70.6279 20.3158 71.4302 20.5479 72.4292 20.5479C73.3979 20.5479 74.1346 20.3662 74.6392 20.0029C75.1437 19.6296 75.396 19.1452 75.396 18.5498Z" fill="#171FE5"/>
<path d="M91.4106 18.5498C91.4106 17.8939 91.1382 17.3944 90.5933 17.0513C90.0584 16.7082 89.1654 16.4054 87.9141 16.1431C86.6628 15.8807 85.6183 15.5477 84.7808 15.144C82.9442 14.256 82.0259 12.9694 82.0259 11.2842C82.0259 9.87142 82.6213 8.69076 83.812 7.74219C85.0028 6.79362 86.5164 6.31934 88.353 6.31934C90.3107 6.31934 91.89 6.80371 93.0908 7.77246C94.3018 8.74121 94.9072 9.99756 94.9072 11.5415H91.229C91.229 10.8351 90.9666 10.2498 90.4419 9.78564C89.9172 9.31136 89.2209 9.07422 88.353 9.07422C87.5457 9.07422 86.8848 9.2609 86.3701 9.63428C85.8656 10.0076 85.6133 10.5072 85.6133 11.1328C85.6133 11.6979 85.8504 12.1369 86.3247 12.4497C86.799 12.7625 87.7576 13.0804 89.2007 13.4033C90.6437 13.7161 91.7739 14.0946 92.5913 14.5386C93.4188 14.9725 94.0293 15.4972 94.4229 16.1128C94.8265 16.7284 95.0283 17.4751 95.0283 18.353C95.0283 19.8263 94.4178 21.0221 93.1968 21.9404C91.9757 22.8486 90.3763 23.3027 88.3984 23.3027C87.0563 23.3027 85.8605 23.0605 84.811 22.5762C83.7616 22.0918 82.9442 21.4258 82.3589 20.5781C81.7736 19.7305 81.481 18.8172 81.481 17.8384H85.0532C85.1037 18.7062 85.4316 19.3773 86.0371 19.8516C86.6426 20.3158 87.4448 20.5479 88.4438 20.5479C89.4126 20.5479 90.1493 20.3662 90.6538 20.0029C91.1584 19.6296 91.4106 19.1452 91.4106 18.5498Z" fill="#171FE5"/>
</svg>
